# xmcd
#
# Track frame offsets: 
#        150
#        14704
#        41842
#        56938
#        75409
#        89461
#        100316
#        116308
#        146765
#        187865
#        215800
#        232160
#        255069
#        261946
#
# Disc length: 4158 seconds
#
# Revision: 0
# Processed by: cddbd v1.5.2PL0 Copyright (c) Steve Scherf et al.
# Submitted via: ExactAudioCopy v0.99pb5
#
DISCID=c6103c0e
DTITLE=Cristóbal de Morales - O Magnum Mysterium
DYEAR=2013
DGENRE=Renaissance
TTITLE0=O magnum mysterium 
TTITLE1=Missus est Gabriel
TTITLE2=Ecce virgo concipiet
TTITLE3=Veni Domine
TTITLE4=Ave Maria 
TTITLE5=Puer natus est
TTITLE6=Pastores dicite 
TTITLE7=Exaltata est 
TTITLE8=Salve Regina
TTITLE9=Sancta et immaculata
TTITLE10=Ave Regina coelorum
TTITLE11=Candida virginitas
TTITLE12=Salva nos
TTITLE13=Cum natus esset
EXTD=
EXTT0=
EXTT1=
EXTT2=
EXTT3=
EXTT4=
EXTT5=
EXTT6=
EXTT7=
EXTT8=
EXTT9=
EXTT10=
EXTT11=
EXTT12=
EXTT13=
PLAYORDER=
